<?xml version="1.0" encoding="UTF-8"?>
<mxfile host="Electron" modified="2021-05-18T07:18:50.914Z" agent="5.0 (Macintosh; Intel Mac OS X 11_3_1) AppleWebKit/537.36 (KHTML, like Gecko) draw.io/14.5.1 Chrome/89.0.4389.82 Electron/12.0.1 Safari/537.36" etag="zbOJoGiuP7ParnCRupPk" version="14.5.1" type="device">
  <diagram id="Ul-z1ypJsJkvYuxd73nE" name="Page-1">
    <mxGraphModel dx="1106" dy="997" grid="1" gridSize="10" guides="1" tooltips="1" connect="1" arrows="1" fold="1" page="1" pageScale="1" pageWidth="827" pageHeight="1169" math="0" shadow="0">
      <root>
        <mxCell id="0" />
        <mxCell id="1" parent="0" />
        <mxCell id="j0NCFHiJSFB55uN6TQXV-1" value="This is a draw io file.&amp;nbsp;&lt;br&gt;It has a single tab.&lt;br&gt;The tab has no metadata." style="rounded=0;whiteSpace=wrap;html=1;" vertex="1" parent="1">
          <mxGeometry x="110" y="200" width="440" height="250" as="geometry" />
        </mxCell>
      </root>
    </mxGraphModel>
</mxfile>
